<svg xmlns="http://www.w3.org/2000/svg" viewBox="0 0 841 594" width="841mm" height="594mm" role="img" aria-label="D1.1.ST-01 Pôdorys strechy"><style><![CDATA[@page{size:841mm 594mm;margin:0}*{box-sizing:border-box}html,body{margin:0;padding:0;background:#bbb;font-family:Arial,Helvetica,sans-serif}.page{width:841mm;height:594mm;overflow:hidden;break-after:page;page-break-after:always;background:white;margin:0}.page:last-child{break-after:auto;page-break-after:auto}.page>svg{display:block;width:841mm;height:594mm}svg text{font-family:Arial,Helvetica,sans-serif;fill:black}.bold{font-weight:700}.muted{fill:#555}.thin{stroke:black;stroke-width:.18}.medium{stroke:black;stroke-width:.35}.heavy{stroke:black;stroke-width:.65}.hair{stroke:#888;stroke-width:.10}.rule{stroke:#aaa;stroke-width:.13}.dim{stroke:black;stroke-width:.18}.dim.halo{stroke:white;stroke-width:1.2;paint-order:stroke}.dim text,text.dim{fill:black;stroke:none}.extension{stroke:black;stroke-width:.1}.axis{stroke:#555;stroke-width:.13;stroke-dasharray:5 1 1 1}.datum{stroke:#555;stroke-width:.2;stroke-dasharray:6 1 1 1}.unknown{stroke:black;stroke-width:.5;stroke-dasharray:4 2}.boundary{stroke:black;stroke-width:.4;stroke-dasharray:5 1 1 1}.cutline{stroke:black;stroke-width:.5;stroke-dasharray:8 1.5 1 1.5}.halo{paint-order:stroke;stroke:white;stroke-width:1.4;stroke-linejoin:round}svg{print-color-adjust:exact;-webkit-print-color-adjust:exact}@media screen{.page{margin:12px auto;box-shadow:0 2px 10px #666}}
.xs-doors .fp-door path{fill:none;stroke:#000;stroke-width:15}.xs-doors .fp-door path+path{stroke-width:6;stroke-dasharray:none}.xs-doors .fp-door-gap{fill:#fff;stroke:none}.xs-doors .fp-sliding path{stroke:#000}text{font-family:"Helvetica Neue", Helvetica, Arial, sans-serif}]]></style><defs>
    <pattern id="murivo" width="1.5" height="1.5" patternUnits="userSpaceOnUse" patternTransform="rotate(45)"><rect width="1.5" height="1.5" fill="white"/><path d="M0 0V1.5" stroke="black" stroke-width=".16"/></pattern>
    <pattern id="bearing" width=".9" height=".9" patternUnits="userSpaceOnUse" patternTransform="rotate(45)"><rect width=".9" height=".9" fill="white"/><path d="M0 0V.9" stroke="black" stroke-width=".14"/></pattern>
    <pattern id="insulation" width="1" height="1" patternUnits="userSpaceOnUse" patternTransform="rotate(-45)"><rect width="1" height="1" fill="#fafafa"/><path d="M0 0V1" stroke="black" stroke-width=".08"/></pattern>
    <pattern id="concrete" width="3" height="3" patternUnits="userSpaceOnUse"><rect width="3" height="3" fill="white"/><path d="M.4 .4L1 .3L.8 1Z M2 2L2.6 2.2L2.5 2.7Z" fill="none" stroke="black" stroke-width=".1"/></pattern>
    <pattern id="timber" width="2.4" height="5" patternUnits="userSpaceOnUse"><rect width="2.4" height="5" fill="white"/><path d="M0 0V5" stroke="black" stroke-width=".1"/></pattern>
  </defs><rect width="841" height="594" fill="white"/><rect x="5" y="5" width="831" height="584" class="thin" fill="none"/><text x="12" y="19" font-size="3.6" class="bold" text-anchor="start">D1.1.ST-01</text><text x="12" y="30" font-size="6" class="bold" text-anchor="start">Pôdorys strechy</text><text x="829" y="19" font-size="3" class="" text-anchor="end">C / B / B · 14. 09. 2026</text><line x1="12" y1="36" x2="829" y2="36" class="thin" /><polygon points="34,418.1 40,418.1 40,424.7 34,424.7" class="thin" fill="url(#murivo)"/><polygon points="30,424.7 40,424.7 40,428.7 30,428.7" class="thin" fill="url(#insulation)"/><polygon points="106,418.1 120.04,418.1 120.04,424.7 106,424.7" class="thin" fill="url(#murivo)"/><polygon points="106,424.7 120.04,424.7 120.04,428.7 106,428.7" class="thin" fill="url(#insulation)"/><polygon points="120.04,418.1 145.04000000000002,418.1 145.04000000000002,424.7 120.04,424.7" class="thin" fill="url(#murivo)"/><polygon points="120.04,424.7 145.04000000000002,424.7 145.04000000000002,428.7 120.04,428.7" class="thin" fill="url(#insulation)"/><polygon points="145.04000000000002,418.1 172.96,418.1 172.96,424.7 145.04000000000002,424.7" class="thin" fill="url(#murivo)"/><polygon points="145.04000000000002,424.7 172.96,424.7 172.96,428.7 145.04000000000002,428.7" class="thin" fill="url(#insulation)"/><polygon points="172.96,418.1 187.96,418.1 187.96,424.7 172.96,424.7" class="thin" fill="url(#murivo)"/><polygon points="172.96,424.7 187.96,424.7 187.96,428.7 172.96,428.7" class="thin" fill="url(#insulation)"/><polygon points="187.96,418.1 241.04,418.1 241.04,424.7 187.96,424.7" class="thin" fill="url(#murivo)"/><polygon points="187.96,424.7 241.04,424.7 241.04,428.7 187.96,428.7" class="thin" fill="url(#insulation)"/><polygon points="277.03999999999996,418.1 332,418.1 332,424.7 277.03999999999996,424.7" class="thin" fill="url(#murivo)"/><polygon points="277.03999999999996,424.7 332,424.7 332,428.7 277.03999999999996,428.7" class="thin" fill="url(#insulation)"/><polygon points="357,418.1 390.04,418.1 390.04,424.7 357,424.7" class="thin" fill="url(#murivo)"/><polygon points="357,424.7 390.04,424.7 390.04,428.7 357,428.7" class="thin" fill="url(#insulation)"/><polygon points="430.04,418.1 458,418.1 458,424.7 430.04,424.7" class="thin" fill="url(#murivo)"/><polygon points="430.04,424.7 462,424.7 462,428.7 430.04,428.7" class="thin" fill="url(#insulation)"/><polygon points="30,264.7 58,264.7 58,275.3 30,275.3" class="thin" fill="url(#murivo)"/><polygon points="118.04,268.7 138,268.7 138,275.3 118.04,275.3" class="thin" fill="url(#murivo)"/><polygon points="114,264.7 138,264.7 138,268.7 114,268.7" class="thin" fill="url(#insulation)"/><polygon points="188,268.7 241.04,268.7 241.04,275.3 188,275.3" class="thin" fill="url(#murivo)"/><polygon points="188,264.7 241.04,264.7 241.04,268.7 188,268.7" class="thin" fill="url(#insulation)"/><polygon points="277.03999999999996,268.7 322,268.7 322,275.3 277.03999999999996,275.3" class="thin" fill="url(#murivo)"/><polygon points="277.03999999999996,264.7 322,264.7 322,268.7 277.03999999999996,268.7" class="thin" fill="url(#insulation)"/><polygon points="451.4,384.46 458,384.46 458,424.7 451.4,424.7" class="thin" fill="url(#murivo)"/><polygon points="458,384.46 462,384.46 462,428.7 458,428.7" class="thin" fill="url(#insulation)"/><polygon points="451.4,352.68 458,352.68 458,364.46 451.4,364.46" class="thin" fill="url(#murivo)"/><polygon points="458,352.68 462,352.68 462,364.46 458,364.46" class="thin" fill="url(#insulation)"/><polygon points="451.4,340.66 458,340.66 458,352.66 451.4,352.66" class="thin" fill="url(#murivo)"/><polygon points="458,340.66 462,340.66 462,352.66 458,352.66" class="thin" fill="url(#insulation)"/><polygon points="451.4,308.7 458,308.7 458,340.68 451.4,340.68" class="thin" fill="url(#murivo)"/><polygon points="458,308.7 462,308.7 462,340.68 458,340.68" class="thin" fill="url(#insulation)"/><polygon points="451.4,252.7 458,252.7 458,290.7 451.4,290.7" class="thin" fill="url(#murivo)"/><polygon points="458,252.7 462,252.7 462,290.7 458,290.7" class="thin" fill="url(#insulation)"/><polygon points="451.4,98 458,98 458,232.7 451.4,232.7" class="thin" fill="url(#murivo)"/><polygon points="458,98 462,98 462,232.7 458,232.7" class="thin" fill="url(#insulation)"/><polygon points="451.4,48 462,48 462,98 451.4,98" class="thin" fill="url(#murivo)"/><polygon points="34,401.54 40.6,401.54 40.6,424.7 34,424.7" class="thin" fill="url(#murivo)"/><polygon points="30,401.54 34,401.54 34,428.7 30,428.7" class="thin" fill="url(#insulation)"/><polygon points="34,376.54 40.6,376.54 40.6,401.54 34,401.54" class="thin" fill="url(#murivo)"/><polygon points="30,376.54 34,376.54 34,401.54 30,401.54" class="thin" fill="url(#insulation)"/><polygon points="34,307.76 40.6,307.76 40.6,376.54 34,376.54" class="thin" fill="url(#murivo)"/><polygon points="30,303.76 34,303.76 34,376.54 30,376.54" class="thin" fill="url(#insulation)"/><polygon points="30,264.7 40.6,264.7 40.6,284.7 30,284.7" class="thin" fill="url(#murivo)"/><polygon points="326,257.7 332,257.7 332,268.7 326,268.7" class="thin" fill="url(#murivo)"/><polygon points="322,257.7 326,257.7 326,268.7 322,268.7" class="thin" fill="url(#insulation)"/><polygon points="326,102 332,102 332,212.7 326,212.7" class="thin" fill="url(#murivo)"/><polygon points="322,98 326,98 326,212.7 322,212.7" class="thin" fill="url(#insulation)"/><polygon points="322,48 332,48 332,58 322,58" class="thin" fill="url(#murivo)"/><polygon points="34,303.76 40.6,303.76 40.6,307.76 34,307.76" class="thin" fill="url(#insulation)"/><polygon points="40,307.76 82.92,307.76 82.92,313.76 40,313.76" class="thin" fill="url(#murivo)"/><polygon points="40.6,303.76 82.92,303.76 82.92,307.76 40.6,307.76" class="thin" fill="url(#insulation)"/><polygon points="107.92,307.76 114,307.76 114,313.76 107.92,313.76" class="thin" fill="url(#murivo)"/><polygon points="107.92,303.76 114,303.76 114,307.76 107.92,307.76" class="thin" fill="url(#insulation)"/><polygon points="114,307.76 118.04,307.76 118.04,313.76 114,313.76" class="thin" fill="url(#murivo)"/><polygon points="114,264.7 118.04,264.7 118.04,307.76 114,307.76" class="thin" fill="url(#insulation)"/><polygon points="332,102 342,102 342,108 332,108" class="thin" fill="url(#murivo)"/><polygon points="322,98 342,98 342,102 322,102" class="thin" fill="url(#insulation)"/><polygon points="382,102 452,102 452,108 382,108" class="thin" fill="url(#murivo)"/><polygon points="382,98 458,98 458,102 382,102" class="thin" fill="url(#insulation)"/><rect x="353.98" y="380.28" width="4.06" height="4.52" class="thin" fill="url(#murivo)"/><rect x="353.98" y="354.67" width="2.88" height="7.59" class="thin" fill="url(#murivo)"/><rect x="353.98" y="291.38" width="2.88" height="47.29" class="thin" fill="url(#murivo)"/><rect x="353.98" y="257.7" width="2.88" height="10.76" class="thin" fill="url(#murivo)"/><rect x="356.86" y="360.41" width="95.16" height="0.25" class="thin" fill="url(#murivo)"/><rect x="356.86" y="360.16" width="95.16" height="0.25" class="thin" fill="url(#murivo)"/><rect x="356.86" y="359.26" width="95.16" height="0.9" class="thin" fill="url(#insulation)"/><rect x="356.86" y="358.96" width="95.16" height="0.3" class="thin" fill="url(#insulation)"/><rect x="356.86" y="356.96" width="95.16" height="2" class="thin" fill="url(#murivo)"/><rect x="356.86" y="356.66" width="95.16" height="0.3" class="thin" fill="url(#murivo)"/><rect x="394.84" y="313.26" width="2.78" height="20.62" class="thin" fill="url(#murivo)"/><rect x="394.84" y="333.88" width="57.18" height="2.8" class="thin" fill="url(#murivo)"/><rect x="356.86" y="310.46" width="40.76" height="2.8" class="thin" fill="url(#murivo)"/><rect x="394.84" y="274.46000000000004" width="2.78" height="36" class="thin" fill="url(#murivo)"/><rect x="206.06" y="357.66" width="43.98" height="2.8" class="thin" fill="url(#murivo)"/><rect x="206.06" y="332.88" width="43.98" height="2.8" class="thin" fill="url(#murivo)"/><rect x="268.03999999999996" y="332.88" width="64.02" height="2.8" class="thin" fill="url(#murivo)"/><rect x="158.04" y="376.62" width="2.8" height="42" class="thin" fill="url(#murivo)"/><rect x="118.04" y="373.82" width="42.8" height="2.8" class="thin" fill="url(#murivo)"/><rect x="118.04" y="371.82" width="6.02" height="2" class="thin" fill="url(#murivo)"/><rect x="118.04" y="274.72" width="6.02" height="97.1" class="thin" fill="url(#murivo)"/><rect x="168.06" y="332.88" width="2.8" height="43.74" class="thin" fill="url(#murivo)"/><rect x="124.06" y="332.88" width="13" height="2.8" class="thin" fill="url(#murivo)"/><rect x="153.06" y="332.88" width="15" height="2.8" class="thin" fill="url(#murivo)"/><rect x="160.84" y="373.82" width="7.22" height="2.8" class="thin" fill="url(#murivo)"/><rect x="170.86" y="357.66" width="9.2" height="2.8" class="thin" fill="url(#murivo)"/><rect x="196.06" y="357.66" width="4" height="2.8" class="thin" fill="url(#murivo)"/><rect x="170.86" y="332.88" width="9.2" height="2.8" class="thin" fill="url(#murivo)"/><rect x="196.06" y="332.88" width="4" height="2.8" class="thin" fill="url(#murivo)"/><rect x="200.06" y="357.66" width="2" height="60.96" class="thin" fill="url(#murivo)"/><rect x="202.06" y="357.66" width="2" height="60.96" class="thin" fill="url(#insulation)"/><rect x="204.06" y="357.66" width="2" height="60.96" class="thin" fill="url(#murivo)"/><rect x="200.06" y="274.72" width="2" height="60.96" class="thin" fill="url(#murivo)"/><rect x="202.06" y="274.72" width="2" height="60.96" class="thin" fill="url(#insulation)"/><rect x="204.06" y="274.72" width="2" height="60.96" class="thin" fill="url(#murivo)"/><rect x="312.02" y="360.46" width="6.02" height="58.16" class="thin" fill="url(#murivo)"/><rect x="268.03999999999996" y="357.66" width="65.96" height="2.8" class="thin" fill="url(#murivo)"/><rect x="352" y="357.66" width="1.98" height="2.8" class="thin" fill="url(#murivo)"/><rect x="312.02" y="274.72" width="6.02" height="58.16" class="thin" fill="url(#murivo)"/><rect x="318.04" y="330.08" width="14.02" height="2.8" class="thin" fill="url(#murivo)"/><rect x="368.54" y="384.8" width="3.5" height="33.82" class="thin" fill="url(#murivo)"/><rect x="358.04" y="381.3" width="14" height="3.5" class="thin" fill="url(#murivo)"/><rect x="356.86" y="360.66" width="1.18" height="1.6" class="thin" fill="url(#murivo)"/><rect x="353.98" y="268.46000000000004" width="68.84" height="6" class="thin" fill="url(#murivo)"/><rect x="438.82" y="268.46000000000004" width="13.2" height="6" class="thin" fill="url(#murivo)"/><rect x="353.98" y="274.46000000000004" width="2.88" height="0.92" class="thin" fill="url(#murivo)"/><rect x="322" y="268.7" width="10.06" height="6.6" class="thin" fill="url(#murivo)"/><text x="343.2" y="397.7" font-size="2.7" class="bold halo" text-anchor="middle">1.01</text><text x="343" y="346.7" font-size="2.7" class="bold halo" text-anchor="middle">1.02</text><text x="427.2" y="184.7" font-size="2.7" class="bold halo" text-anchor="middle">1.03</text><text x="403.2" y="372.7" font-size="2.7" class="bold halo" text-anchor="middle">1.04</text><text x="373.2" y="332.94" font-size="2.7" class="bold halo" text-anchor="middle">1.05</text><text x="375.86" y="290.7" font-size="2.7" class="bold halo" text-anchor="middle">1.06</text><text x="435.4" y="287.7" font-size="2.7" class="bold halo" text-anchor="middle">1.07</text><text x="257.2" y="391.7" font-size="2.7" class="bold halo" text-anchor="middle">1.08</text><text x="257.2" y="304.7" font-size="2.7" class="bold halo" text-anchor="middle">1.09</text><text x="185.2" y="300.7" font-size="2.7" class="bold halo" text-anchor="middle">1.10</text><text x="177.2" y="392.7" font-size="2.7" class="bold halo" text-anchor="middle">1.11</text><text x="107.2" y="388.7" font-size="2.7" class="bold halo" text-anchor="middle">1.12</text><text x="146.06" y="358.7" font-size="2.7" class="bold halo" text-anchor="middle">1.14</text><polygon points="30,428.7 462,428.7 392,346.7 30,346.7" class="medium" fill="#f8f8f8"/><polygon points="30,346.7 392,346.7 322,264.7 30,264.7" class="medium" fill="#f8f8f8"/><polygon points="322,264.7 392,346.7 392,48 322,48" class="medium" fill="#f8f8f8"/><polygon points="392,346.7 462,428.7 462,48 392,48" class="medium" fill="#f8f8f8"/><line x1="37.2" y1="428.7" x2="37.2" y2="346.7" class="hair" /><line x1="52.4" y1="428.7" x2="52.4" y2="346.7" class="hair" /><line x1="67.6" y1="428.7" x2="67.6" y2="346.7" class="hair" /><line x1="82.8" y1="428.7" x2="82.8" y2="346.7" class="hair" /><line x1="98" y1="428.7" x2="98" y2="346.7" class="hair" /><line x1="113.2" y1="428.7" x2="113.2" y2="346.7" class="hair" /><line x1="128.4" y1="428.7" x2="128.4" y2="346.7" class="hair" /><line x1="143.6" y1="428.7" x2="143.6" y2="346.7" class="hair" /><line x1="158.8" y1="428.7" x2="158.8" y2="346.7" class="hair" /><line x1="174" y1="428.7" x2="174" y2="346.7" class="hair" /><line x1="189.2" y1="428.7" x2="189.2" y2="346.7" class="hair" /><line x1="204.4" y1="428.7" x2="204.4" y2="346.7" class="hair" /><line x1="219.6" y1="428.7" x2="219.6" y2="346.7" class="hair" /><line x1="234.8" y1="428.7" x2="234.8" y2="346.7" class="hair" /><line x1="250" y1="428.7" x2="250" y2="346.7" class="hair" /><line x1="265.2" y1="428.7" x2="265.2" y2="346.7" class="hair" /><line x1="280.4" y1="428.7" x2="280.4" y2="346.7" class="hair" /><line x1="295.6" y1="428.7" x2="295.6" y2="346.7" class="hair" /><line x1="310.8" y1="428.7" x2="310.8" y2="346.7" class="hair" /><line x1="326" y1="428.7" x2="326" y2="346.7" class="hair" /><line x1="341.2" y1="428.7" x2="341.2" y2="346.7" class="hair" /><line x1="356.4" y1="428.7" x2="356.4" y2="346.7" class="hair" /><line x1="371.6" y1="428.7" x2="371.6" y2="346.7" class="hair" /><line x1="386.8" y1="428.7" x2="386.8" y2="346.7" class="hair" /><line x1="402" y1="428.7" x2="402" y2="358.4142857142857" class="hair" /><line x1="417.2" y1="428.7" x2="417.2" y2="376.22" class="hair" /><line x1="432.4" y1="428.7" x2="432.4" y2="394.0257142857143" class="hair" /><line x1="447.6" y1="428.7" x2="447.6" y2="411.83142857142855" class="hair" /><line x1="37.2" y1="346.7" x2="37.2" y2="264.7" class="hair" /><line x1="52.4" y1="346.7" x2="52.4" y2="264.7" class="hair" /><line x1="67.6" y1="346.7" x2="67.6" y2="264.7" class="hair" /><line x1="82.8" y1="346.7" x2="82.8" y2="264.7" class="hair" /><line x1="98" y1="346.7" x2="98" y2="264.7" class="hair" /><line x1="113.2" y1="346.7" x2="113.2" y2="264.7" class="hair" /><line x1="128.4" y1="346.7" x2="128.4" y2="264.7" class="hair" /><line x1="143.6" y1="346.7" x2="143.6" y2="264.7" class="hair" /><line x1="158.8" y1="346.7" x2="158.8" y2="264.7" class="hair" /><line x1="174" y1="346.7" x2="174" y2="264.7" class="hair" /><line x1="189.2" y1="346.7" x2="189.2" y2="264.7" class="hair" /><line x1="204.4" y1="346.7" x2="204.4" y2="264.7" class="hair" /><line x1="219.6" y1="346.7" x2="219.6" y2="264.7" class="hair" /><line x1="234.8" y1="346.7" x2="234.8" y2="264.7" class="hair" /><line x1="250" y1="346.7" x2="250" y2="264.7" class="hair" /><line x1="265.2" y1="346.7" x2="265.2" y2="264.7" class="hair" /><line x1="280.4" y1="346.7" x2="280.4" y2="264.7" class="hair" /><line x1="295.6" y1="346.7" x2="295.6" y2="264.7" class="hair" /><line x1="310.8" y1="346.7" x2="310.8" y2="264.7" class="hair" /><line x1="326" y1="346.7" x2="326" y2="269.38571428571424" class="hair" /><line x1="341.2" y1="346.7" x2="341.2" y2="287.19142857142856" class="hair" /><line x1="356.4" y1="346.7" x2="356.4" y2="304.9971428571429" class="hair" /><line x1="371.6" y1="346.7" x2="371.6" y2="322.80285714285714" class="hair" /><line x1="386.8" y1="346.7" x2="386.8" y2="340.60857142857145" class="hair" /><line x1="383.1219512195122" y1="336.3" x2="392" y2="336.3" class="hair" /><line x1="370.8292682926829" y1="321.9" x2="392" y2="321.9" class="hair" /><line x1="358.5365853658537" y1="307.5" x2="392" y2="307.5" class="hair" /><line x1="346.2439024390244" y1="293.1" x2="392" y2="293.1" class="hair" /><line x1="333.9512195121951" y1="278.7" x2="392" y2="278.7" class="hair" /><line x1="322" y1="264.3" x2="392" y2="264.3" class="hair" /><line x1="322" y1="249.9" x2="392" y2="249.9" class="hair" /><line x1="322" y1="235.5" x2="392" y2="235.5" class="hair" /><line x1="322" y1="221.1" x2="392" y2="221.1" class="hair" /><line x1="322" y1="206.7" x2="392" y2="206.7" class="hair" /><line x1="322" y1="192.3" x2="392" y2="192.3" class="hair" /><line x1="322" y1="177.9" x2="392" y2="177.9" class="hair" /><line x1="322" y1="163.5" x2="392" y2="163.5" class="hair" /><line x1="322" y1="149.1" x2="392" y2="149.1" class="hair" /><line x1="322" y1="134.7" x2="392" y2="134.7" class="hair" /><line x1="322" y1="120.3" x2="392" y2="120.3" class="hair" /><line x1="322" y1="105.9" x2="392" y2="105.9" class="hair" /><line x1="322" y1="91.5" x2="392" y2="91.5" class="hair" /><line x1="322" y1="77.1" x2="392" y2="77.1" class="hair" /><line x1="322" y1="62.7" x2="392" y2="62.7" class="hair" /><line x1="322" y1="48.3" x2="392" y2="48.3" class="hair" /><line x1="456.8780487804878" y1="422.7" x2="462" y2="422.7" class="hair" /><line x1="444.5853658536585" y1="408.3" x2="462" y2="408.3" class="hair" /><line x1="432.2926829268293" y1="393.9" x2="462" y2="393.9" class="hair" /><line x1="420" y1="379.5" x2="462" y2="379.5" class="hair" /><line x1="407.7073170731707" y1="365.1" x2="462" y2="365.1" class="hair" /><line x1="395.4146341463415" y1="350.7" x2="462" y2="350.7" class="hair" /><line x1="392" y1="336.3" x2="462" y2="336.3" class="hair" /><line x1="392" y1="321.9" x2="462" y2="321.9" class="hair" /><line x1="392" y1="307.5" x2="462" y2="307.5" class="hair" /><line x1="392" y1="293.1" x2="462" y2="293.1" class="hair" /><line x1="392" y1="278.7" x2="462" y2="278.7" class="hair" /><line x1="392" y1="264.3" x2="462" y2="264.3" class="hair" /><line x1="392" y1="249.9" x2="462" y2="249.9" class="hair" /><line x1="392" y1="235.5" x2="462" y2="235.5" class="hair" /><line x1="392" y1="221.1" x2="462" y2="221.1" class="hair" /><line x1="392" y1="206.7" x2="462" y2="206.7" class="hair" /><line x1="392" y1="192.3" x2="462" y2="192.3" class="hair" /><line x1="392" y1="177.9" x2="462" y2="177.9" class="hair" /><line x1="392" y1="163.5" x2="462" y2="163.5" class="hair" /><line x1="392" y1="149.1" x2="462" y2="149.1" class="hair" /><line x1="392" y1="134.7" x2="462" y2="134.7" class="hair" /><line x1="392" y1="120.3" x2="462" y2="120.3" class="hair" /><line x1="392" y1="105.9" x2="462" y2="105.9" class="hair" /><line x1="392" y1="91.5" x2="462" y2="91.5" class="hair" /><line x1="392" y1="77.1" x2="462" y2="77.1" class="hair" /><line x1="392" y1="62.7" x2="462" y2="62.7" class="hair" /><line x1="392" y1="48.3" x2="462" y2="48.3" class="hair" /><line x1="30" y1="346.7" x2="392" y2="346.7" class="heavy" /><line x1="392" y1="346.7" x2="392" y2="48" class="heavy" /><line x1="322" y1="264.7" x2="392" y2="346.7" class="medium" /><line x1="392" y1="346.7" x2="462" y2="428.7" class="medium" /><line x1="30" y1="428.7" x2="462" y2="428.7" class="medium" /><line x1="30" y1="264.7" x2="322" y2="264.7" class="medium" /><line x1="322" y1="264.7" x2="322" y2="48" class="medium" /><line x1="462" y1="428.7" x2="462" y2="48" class="medium" /><circle cx="30" cy="428.7" r="3" fill="white" class="thin"/><text x="30" y="429.7" font-size="2.8" class="bold" text-anchor="middle">1</text><circle cx="462" cy="428.7" r="3" fill="white" class="thin"/><text x="462" y="429.7" font-size="2.8" class="bold" text-anchor="middle">2</text><circle cx="30" cy="346.7" r="3" fill="white" class="thin"/><text x="30" y="347.7" font-size="2.8" class="bold" text-anchor="middle">3</text><circle cx="392" cy="346.7" r="3" fill="white" class="thin"/><text x="392" y="347.7" font-size="2.8" class="bold" text-anchor="middle">4</text><circle cx="30" cy="264.7" r="3" fill="white" class="thin"/><text x="30" y="265.7" font-size="2.8" class="bold" text-anchor="middle">5</text><circle cx="322" cy="264.7" r="3" fill="white" class="thin"/><text x="322" y="265.7" font-size="2.8" class="bold" text-anchor="middle">6</text><circle cx="322" cy="48" r="3" fill="white" class="thin"/><text x="322" y="49" font-size="2.8" class="bold" text-anchor="middle">7</text><circle cx="392" cy="48" r="3" fill="white" class="thin"/><text x="392" y="49" font-size="2.8" class="bold" text-anchor="middle">8</text><circle cx="462" cy="48" r="3" fill="white" class="thin"/><text x="462" y="49" font-size="2.8" class="bold" text-anchor="middle">9</text><circle cx="338.26" cy="116.3" r="3" fill="white" class="thin"/><text x="338.26" y="117.3" font-size="2.8" class="bold" text-anchor="middle">K1</text><line x1="30" y1="428.7" x2="30" y2="448.7" class="extension" /><line x1="462" y1="428.7" x2="462" y2="448.7" class="extension" /><line x1="30" y1="446.7" x2="462" y2="446.7" class="dim" /><line x1="29" y1="447.7" x2="31" y2="445.7" class="dim" /><line x1="461" y1="447.7" x2="463" y2="445.7" class="dim" /><text x="246" y="445.09999999999997" font-size="2.6" class="dim halo" text-anchor="middle">21 600</text><line x1="462" y1="48" x2="481" y2="48" class="extension" /><line x1="462" y1="428.7" x2="481" y2="428.7" class="extension" /><line x1="479" y1="48" x2="479" y2="428.7" class="dim" /><line x1="478" y1="49" x2="480" y2="47" class="dim" /><line x1="478" y1="429.7" x2="480" y2="427.7" class="dim" /><g transform="translate(477.3 238.35) rotate(-90)"><text x="0" y="0" font-size="2.6" class="dim halo" text-anchor="middle">19 035</text></g><rect x="530" y="52" width="295" height="10" class="thin" fill="#efefef"/><text x="532" y="58" font-size="2.7" class="bold" text-anchor="start">Bod</text><text x="558.55" y="58" font-size="2.7" class="bold" text-anchor="start">X [mm]</text><text x="632.3" y="58" font-size="2.7" class="bold" text-anchor="start">Y [mm]</text><text x="706.05" y="58" font-size="2.7" class="bold" text-anchor="start">Z [mm]</text><text x="779.8" y="58" font-size="2.7" class="bold" text-anchor="start">Ref.</text><rect x="530" y="62" width="295" height="10" class="rule" fill="white"/><text x="532" y="66.5" font-size="2.6" class="" text-anchor="start">1</text><text x="558.55" y="66.5" font-size="2.6" class="" text-anchor="start">6 440</text><text x="632.3" y="66.5" font-size="2.6" class="" text-anchor="start">3 000</text><text x="706.05" y="66.5" font-size="2.6" class="" text-anchor="start">3 125</text><text x="779.8" y="66.5" font-size="2.6" class="" text-anchor="start">ST</text><rect x="530" y="72" width="295" height="10" class="rule" fill="white"/><text x="532" y="76.5" font-size="2.6" class="" text-anchor="start">2</text><text x="558.55" y="76.5" font-size="2.6" class="" text-anchor="start">28 040</text><text x="632.3" y="76.5" font-size="2.6" class="" text-anchor="start">3 000</text><text x="706.05" y="76.5" font-size="2.6" class="" text-anchor="start">3 125</text><text x="779.8" y="76.5" font-size="2.6" class="" text-anchor="start">ST</text><rect x="530" y="82" width="295" height="10" class="rule" fill="white"/><text x="532" y="86.5" font-size="2.6" class="" text-anchor="start">3</text><text x="558.55" y="86.5" font-size="2.6" class="" text-anchor="start">6 440</text><text x="632.3" y="86.5" font-size="2.6" class="" text-anchor="start">7 100</text><text x="706.05" y="86.5" font-size="2.6" class="" text-anchor="start">5 560</text><text x="779.8" y="86.5" font-size="2.6" class="" text-anchor="start">ST</text><rect x="530" y="92" width="295" height="10" class="rule" fill="white"/><text x="532" y="96.5" font-size="2.6" class="" text-anchor="start">4</text><text x="558.55" y="96.5" font-size="2.6" class="" text-anchor="start">24 540</text><text x="632.3" y="96.5" font-size="2.6" class="" text-anchor="start">7 100</text><text x="706.05" y="96.5" font-size="2.6" class="" text-anchor="start">5 560</text><text x="779.8" y="96.5" font-size="2.6" class="" text-anchor="start">ST</text><rect x="530" y="102" width="295" height="10" class="rule" fill="white"/><text x="532" y="106.5" font-size="2.6" class="" text-anchor="start">5</text><text x="558.55" y="106.5" font-size="2.6" class="" text-anchor="start">6 440</text><text x="632.3" y="106.5" font-size="2.6" class="" text-anchor="start">11 200</text><text x="706.05" y="106.5" font-size="2.6" class="" text-anchor="start">3 125</text><text x="779.8" y="106.5" font-size="2.6" class="" text-anchor="start">ST</text><rect x="530" y="112" width="295" height="10" class="rule" fill="white"/><text x="532" y="116.5" font-size="2.6" class="" text-anchor="start">6</text><text x="558.55" y="116.5" font-size="2.6" class="" text-anchor="start">21 040</text><text x="632.3" y="116.5" font-size="2.6" class="" text-anchor="start">11 200</text><text x="706.05" y="116.5" font-size="2.6" class="" text-anchor="start">3 125</text><text x="779.8" y="116.5" font-size="2.6" class="" text-anchor="start">ST</text><rect x="530" y="122" width="295" height="10" class="rule" fill="white"/><text x="532" y="126.5" font-size="2.6" class="" text-anchor="start">7</text><text x="558.55" y="126.5" font-size="2.6" class="" text-anchor="start">21 040</text><text x="632.3" y="126.5" font-size="2.6" class="" text-anchor="start">22 035</text><text x="706.05" y="126.5" font-size="2.6" class="" text-anchor="start">3 125</text><text x="779.8" y="126.5" font-size="2.6" class="" text-anchor="start">ST</text><rect x="530" y="132" width="295" height="10" class="rule" fill="white"/><text x="532" y="136.5" font-size="2.6" class="" text-anchor="start">8</text><text x="558.55" y="136.5" font-size="2.6" class="" text-anchor="start">24 540</text><text x="632.3" y="136.5" font-size="2.6" class="" text-anchor="start">22 035</text><text x="706.05" y="136.5" font-size="2.6" class="" text-anchor="start">5 560</text><text x="779.8" y="136.5" font-size="2.6" class="" text-anchor="start">ST</text><rect x="530" y="142" width="295" height="10" class="rule" fill="white"/><text x="532" y="146.5" font-size="2.6" class="" text-anchor="start">9</text><text x="558.55" y="146.5" font-size="2.6" class="" text-anchor="start">28 040</text><text x="632.3" y="146.5" font-size="2.6" class="" text-anchor="start">22 035</text><text x="706.05" y="146.5" font-size="2.6" class="" text-anchor="start">3 125</text><text x="779.8" y="146.5" font-size="2.6" class="" text-anchor="start">ST</text><line x1="530" y1="52" x2="530" y2="152" class="rule" /><line x1="556.55" y1="52" x2="556.55" y2="152" class="rule" /><line x1="630.3" y1="52" x2="630.3" y2="152" class="rule" /><line x1="704.05" y1="52" x2="704.05" y2="152" class="rule" /><line x1="777.8" y1="52" x2="777.8" y2="152" class="rule" /><line x1="825" y1="52" x2="825" y2="152" class="rule" /><text x="530" y="173" font-size="3.3" class="bold" text-anchor="start">GEOMETRIA STRECHY Z MODELOVÝCH VRCHOLOV</text><text x="530" y="183" font-size="3" class="" text-anchor="start">Hlavný trakt: atan((5560 − 3125) / 4100) = 30.706180°. Krídlo: 34.826887°. Pôvodné štítky 30°/34° nie sú presným sklonom tejto geometrie. Obal sa nemení.</text><text x="530" y="227" font-size="3" class="" text-anchor="start">K1: FLUE-LIVING-103-B; X 21 853, Y 18 620, Ø 150 mm, ukončenie M+6,160. Kotolňa B zatiaľ nemá modelovanú vonkajšiu trasu dymovodu.</text><text x="530" y="267" font-size="3" class="" text-anchor="start">Falcové línie zobrazujú existujúci modelový raster krytiny. Nie sú rozmiestnením krokiev. Úžľabie, nárožie, hrebeň a odkvapné hrany sú z tej istej geometrie ako 3D.</text><text x="530" y="309" font-size="3" class="" text-anchor="start">Nové zadanie: falcovaný plech, nulový architektonický presah. Krytá terasa je zapustená hmota, nie presah. Koncová rovina strechy sa viaže na líce čela terasy; lemovanie a žľab</text><text x="530" y="313.5" font-size="3" class="" text-anchor="start">potrebujú finálny detail.</text><text x="530" y="360" font-size="3" class="" text-anchor="start">Povala iba na odkladanie vecí. Drevené pôdne väzníky v pravidelnom trakte, samostatné drevené polia pri uzle L a osobitná katedrála. Bez betónového stropu a nadbetonávky.</text><text x="530" y="364.5" font-size="3" class="" text-anchor="start">Prierezy, skladovacie zaťaženie, spoje a kotvenie vyžadujú výpočet.</text><text x="12" y="492" font-size="2.7" class="" text-anchor="start">KONTROLA TLAČE 100 % · 1 000 mm = 20 mm na papieri</text><line x1="12" y1="498" x2="32" y2="498" class="heavy" /><line x1="12" y1="495" x2="12" y2="501" class="thin" /><line x1="32" y1="495" x2="32" y2="501" class="thin" /><text x="39" y="499" font-size="2.7" class="" text-anchor="start">1 : 50 · vypnúť „prispôsobiť strane“</text><line x1="12" y1="513" x2="829" y2="513" class="heavy" /><text x="12" y="523" font-size="6" class="bold" text-anchor="start">NOVOSTAVBA RD BŘEZÍ U MIKULOVA</text><text x="12" y="531" font-size="3.6" class="bold" text-anchor="start">PARCELA 6012/26 · HLAVNÝ NÁVRH C / B / B</text><text x="12" y="541" font-size="5" class="bold" text-anchor="start">Pôdorys strechy</text><text x="12" y="550" font-size="2.6" class="" text-anchor="start">R0 = 184,200 m · M0 = PODLAHA MODELU · ΔFFL = M0 − R0 ZATIAĽ NEURČENÉ</text><text x="12" y="559" font-size="2.8" class="" text-anchor="start">Geometrické vrcholy, hrany a presahy z lib/twin-roof.ts. Návrh krovu a strešného plášťa je samostatná otvorená časť R04. Čísla bodov sú doplnkové, existujúce osi zostávajú.</text><line x1="500" y1="513" x2="500" y2="581" class="thin" /><text x="509" y="522" font-size="2.5" class="muted" text-anchor="start">STAV</text><text x="509" y="530" font-size="4.8" class="bold" text-anchor="start">NEVYDANÉ NA REALIZÁCIU</text><text x="509" y="538" font-size="2.8" class="" text-anchor="start">Chýbajúci návrh sa nesmie nahradiť mierkou výkresu.</text><text x="509" y="549" font-size="2.8" class="" text-anchor="start">VYPRACOVAL: digitálne dvojča · bez autorizačnej pečiatky</text><text x="509" y="557" font-size="2.8" class="" text-anchor="start">DÁTUM 2026-09-14   FORMÁT A1 841 × 594 mm   MIERKA 1 : 50</text><text x="509" y="565" font-size="2.4" class="" text-anchor="start">ZDROJ 6cd4bc82841b · úplné odtlačky v model-snapshot.json</text><text x="829" y="578" font-size="6" class="bold" text-anchor="end">D1.1.ST-01</text></svg>