<svg xmlns="http://www.w3.org/2000/svg" viewBox="0 0 841 594" width="841mm" height="594mm" role="img" aria-label="D1.1.DT-01 Akustické steny H200 / SM30"><style><![CDATA[@page{size:841mm 594mm;margin:0}*{box-sizing:border-box}html,body{margin:0;padding:0;background:#bbb;font-family:Arial,Helvetica,sans-serif}.page{width:841mm;height:594mm;overflow:hidden;break-after:page;page-break-after:always;background:white;margin:0}.page:last-child{break-after:auto;page-break-after:auto}.page>svg{display:block;width:841mm;height:594mm}svg text{font-family:Arial,Helvetica,sans-serif;fill:black}.bold{font-weight:700}.muted{fill:#555}.thin{stroke:black;stroke-width:.18}.medium{stroke:black;stroke-width:.35}.heavy{stroke:black;stroke-width:.65}.hair{stroke:#888;stroke-width:.10}.rule{stroke:#aaa;stroke-width:.13}.dim{stroke:black;stroke-width:.18}.dim.halo{stroke:white;stroke-width:1.2;paint-order:stroke}.dim text,text.dim{fill:black;stroke:none}.extension{stroke:black;stroke-width:.1}.axis{stroke:#555;stroke-width:.13;stroke-dasharray:5 1 1 1}.datum{stroke:#555;stroke-width:.2;stroke-dasharray:6 1 1 1}.unknown{stroke:black;stroke-width:.5;stroke-dasharray:4 2}.boundary{stroke:black;stroke-width:.4;stroke-dasharray:5 1 1 1}.cutline{stroke:black;stroke-width:.5;stroke-dasharray:8 1.5 1 1.5}.halo{paint-order:stroke;stroke:white;stroke-width:1.4;stroke-linejoin:round}svg{print-color-adjust:exact;-webkit-print-color-adjust:exact}@media screen{.page{margin:12px auto;box-shadow:0 2px 10px #666}}
.xs-doors .fp-door path{fill:none;stroke:#000;stroke-width:15}.xs-doors .fp-door path+path{stroke-width:6;stroke-dasharray:none}.xs-doors .fp-door-gap{fill:#fff;stroke:none}.xs-doors .fp-sliding path{stroke:#000}text{font-family:"Helvetica Neue", Helvetica, Arial, sans-serif}]]></style><defs>
    <pattern id="murivo" width="1.5" height="1.5" patternUnits="userSpaceOnUse" patternTransform="rotate(45)"><rect width="1.5" height="1.5" fill="white"/><path d="M0 0V1.5" stroke="black" stroke-width=".16"/></pattern>
    <pattern id="bearing" width=".9" height=".9" patternUnits="userSpaceOnUse" patternTransform="rotate(45)"><rect width=".9" height=".9" fill="white"/><path d="M0 0V.9" stroke="black" stroke-width=".14"/></pattern>
    <pattern id="insulation" width="1" height="1" patternUnits="userSpaceOnUse" patternTransform="rotate(-45)"><rect width="1" height="1" fill="#fafafa"/><path d="M0 0V1" stroke="black" stroke-width=".08"/></pattern>
    <pattern id="concrete" width="3" height="3" patternUnits="userSpaceOnUse"><rect width="3" height="3" fill="white"/><path d="M.4 .4L1 .3L.8 1Z M2 2L2.6 2.2L2.5 2.7Z" fill="none" stroke="black" stroke-width=".1"/></pattern>
    <pattern id="timber" width="2.4" height="5" patternUnits="userSpaceOnUse"><rect width="2.4" height="5" fill="white"/><path d="M0 0V5" stroke="black" stroke-width=".1"/></pattern>
  </defs><rect width="841" height="594" fill="white"/><rect x="5" y="5" width="831" height="584" class="thin" fill="none"/><text x="12" y="19" font-size="3.6" class="bold" text-anchor="start">D1.1.DT-01</text><text x="12" y="30" font-size="6" class="bold" text-anchor="start">Akustické steny H200 / SM30</text><text x="829" y="19" font-size="3" class="" text-anchor="end">C / B / B · 16. 09. 2026 </text><line x1="12" y1="36" x2="829" y2="36" class="thin" /><text x="12" y="49" font-size="3.5" class="bold" text-anchor="start">AK-01 / AK-02 / AK-03 · GEOMETRIA VRSTIEV A NAPOJENÍ</text><text x="12" y="68" font-size="4.2" class="bold" text-anchor="start">SM30 · Murovaná stena z obvodovej tehly 300 mm</text><rect x="25" y="76" width="60" height="55" class="medium" fill="url(#murivo)"/><line x1="25" y1="132" x2="25" y2="145" class="extension" /><line x1="85" y1="132" x2="85" y2="145" class="extension" /><line x1="25" y1="143" x2="85" y2="143" class="dim" /><line x1="24" y1="144" x2="26" y2="142" class="dim" /><line x1="84" y1="144" x2="86" y2="142" class="dim" /><text x="55" y="141.4" font-size="2.6" class="dim halo" text-anchor="middle">300</text><line x1="25" y1="132" x2="25" y2="157" class="extension" /><line x1="85" y1="132" x2="85" y2="157" class="extension" /><line x1="25" y1="155" x2="85" y2="155" class="dim" /><line x1="24" y1="156" x2="26" y2="154" class="dim" /><line x1="84" y1="156" x2="86" y2="154" class="dim" /><text x="55" y="153.4" font-size="2.6" class="dim halo" text-anchor="middle">300</text><rect x="150" y="72" width="675" height="10" class="thin" fill="#efefef"/><text x="152" y="78" font-size="2.7" class="bold" text-anchor="start">Vrstva</text><text x="678.5" y="78" font-size="2.7" class="bold" text-anchor="start">Hrúbka [mm]</text><rect x="150" y="82" width="675" height="9" class="rule" fill="white"/><text x="152" y="86.5" font-size="2.6" class="" text-anchor="start">Klasická obvodová tehla</text><text x="678.5" y="86.5" font-size="2.6" class="" text-anchor="start">300</text><line x1="150" y1="72" x2="150" y2="91" class="rule" /><line x1="676.5" y1="72" x2="676.5" y2="91" class="rule" /><line x1="825" y1="72" x2="825" y2="91" class="rule" /><text x="150" y="100" font-size="3.2" class="" text-anchor="start">AK-01 / AK-02: dôvod odhlučnenia zostáva. Jedna 300 mm obvodová tehla, bez vaty a predsteny; bežné povrchy navyše. Výrobok, hmotnosť a nepriezvučnosť treba doplniť.</text><text x="12" y="198" font-size="4.2" class="bold" text-anchor="start">H200 · LeierPLAN 10 + akustická predstena Silentboard</text><rect x="25" y="206" width="2.5" height="55" class="medium" fill="#eee"/><rect x="27.5" y="206" width="9" height="55" class="medium" fill="url(#insulation)"/><line x1="27.5" y1="262" x2="27.5" y2="275" class="extension" /><line x1="36.5" y1="262" x2="36.5" y2="275" class="extension" /><line x1="27.5" y1="273" x2="36.5" y2="273" class="dim" /><line x1="26.5" y1="274" x2="28.5" y2="272" class="dim" /><line x1="35.5" y1="274" x2="37.5" y2="272" class="dim" /><text x="32" y="271.4" font-size="2.6" class="dim halo" text-anchor="middle">45</text><rect x="36.5" y="206" width="3" height="55" class="medium" fill="#eee"/><line x1="36.5" y1="262" x2="36.5" y2="275" class="extension" /><line x1="39.5" y1="262" x2="39.5" y2="275" class="extension" /><line x1="36.5" y1="273" x2="39.5" y2="273" class="dim" /><line x1="35.5" y1="274" x2="37.5" y2="272" class="dim" /><line x1="38.5" y1="274" x2="40.5" y2="272" class="dim" /><text x="38" y="271.4" font-size="2.6" class="dim halo" text-anchor="middle">15</text><rect x="39.5" y="206" width="20" height="55" class="medium" fill="url(#murivo)"/><line x1="39.5" y1="262" x2="39.5" y2="275" class="extension" /><line x1="59.5" y1="262" x2="59.5" y2="275" class="extension" /><line x1="39.5" y1="273" x2="59.5" y2="273" class="dim" /><line x1="38.5" y1="274" x2="40.5" y2="272" class="dim" /><line x1="58.5" y1="274" x2="60.5" y2="272" class="dim" /><text x="49.5" y="271.4" font-size="2.6" class="dim halo" text-anchor="middle">100</text><rect x="59.5" y="206" width="3" height="55" class="medium" fill="#eee"/><line x1="59.5" y1="262" x2="59.5" y2="275" class="extension" /><line x1="62.5" y1="262" x2="62.5" y2="275" class="extension" /><line x1="59.5" y1="273" x2="62.5" y2="273" class="dim" /><line x1="58.5" y1="274" x2="60.5" y2="272" class="dim" /><line x1="61.5" y1="274" x2="63.5" y2="272" class="dim" /><text x="61" y="271.4" font-size="2.6" class="dim halo" text-anchor="middle">15</text><line x1="25" y1="262" x2="25" y2="275" class="extension" /><line x1="27.5" y1="262" x2="27.5" y2="275" class="extension" /><line x1="25" y1="273" x2="27.5" y2="273" class="dim" /><line x1="24" y1="274" x2="26" y2="272" class="dim" /><line x1="26.5" y1="274" x2="28.5" y2="272" class="dim" /><text x="26.25" y="271.4" font-size="2.6" class="dim halo" text-anchor="middle">12,5</text><line x1="25" y1="262" x2="25" y2="287" class="extension" /><line x1="62.5" y1="262" x2="62.5" y2="287" class="extension" /><line x1="25" y1="285" x2="62.5" y2="285" class="dim" /><line x1="24" y1="286" x2="26" y2="284" class="dim" /><line x1="61.5" y1="286" x2="63.5" y2="284" class="dim" /><text x="43.75" y="283.4" font-size="2.6" class="dim halo" text-anchor="middle">187,5</text><rect x="150" y="202" width="675" height="10" class="thin" fill="#efefef"/><text x="152" y="208" font-size="2.7" class="bold" text-anchor="start">Vrstva</text><text x="678.5" y="208" font-size="2.7" class="bold" text-anchor="start">Hrúbka [mm]</text><rect x="150" y="212" width="675" height="9" class="rule" fill="white"/><text x="152" y="216.5" font-size="2.6" class="" text-anchor="start">Knauf Silentboard · jediná doska pracovne</text><text x="678.5" y="216.5" font-size="2.6" class="" text-anchor="start">12,5</text><rect x="150" y="221" width="675" height="9" class="rule" fill="white"/><text x="152" y="225.5" font-size="2.6" class="" text-anchor="start">Dutina W623 · pružné závesy, CD 60/27 a vata 40 mm</text><text x="678.5" y="225.5" font-size="2.6" class="" text-anchor="start">45</text><rect x="150" y="230" width="675" height="9" class="rule" fill="white"/><text x="152" y="234.5" font-size="2.6" class="" text-anchor="start">Súvislá vápenno-cementová omietka · dutina</text><text x="678.5" y="234.5" font-size="2.6" class="" text-anchor="start">15</text><rect x="150" y="239" width="675" height="9" class="rule" fill="white"/><text x="152" y="243.5" font-size="2.6" class="" text-anchor="start">LeierPLAN 10 N+F · murivo</text><text x="678.5" y="243.5" font-size="2.6" class="" text-anchor="start">100</text><rect x="150" y="248" width="675" height="9" class="rule" fill="white"/><text x="152" y="252.5" font-size="2.6" class="" text-anchor="start">Vápenno-cementová omietka · kúpeľňa</text><text x="678.5" y="252.5" font-size="2.6" class="" text-anchor="start">15</text><line x1="150" y1="202" x2="150" y2="257" class="rule" /><line x1="676.5" y1="202" x2="676.5" y2="257" class="rule" /><line x1="825" y1="202" x2="825" y2="257" class="rule" /><text x="12" y="337" font-size="3.5" class="bold" text-anchor="start">D1 · D-AK03-01 / R2 · PRI ZÁRUBNIACH · 1 : 5</text><rect x="44.8" y="358" width="28.8" height="75.9" class="thin" fill="url(#murivo)"/><rect x="73.6" y="425.4" width="11.8" height="8.5" class="thin" fill="url(#murivo)"/><rect x="25" y="387.9" width="19.8" height="28" class="thin" fill="url(#murivo)"/><rect x="74.6" y="422.9" width="79" height="2.5" class="thin" fill="#eee"/><rect x="73.6" y="413.9" width="80" height="9" class="thin" fill="url(#insulation)"/><rect x="73.6" y="410.9" width="80" height="3" class="thin" fill="#eee"/><rect x="73.6" y="390.9" width="80" height="20" class="thin" fill="url(#murivo)"/><rect x="73.6" y="387.9" width="80" height="3" class="thin" fill="#eee"/><rect x="73.6" y="422.9" width="1" height="2.5" class="dim" fill="white"/><rect x="73.6" y="425.4" width="11.8" height="1" class="dim" fill="white"/><text x="95.6" y="354" font-size="2.7" class="bold" text-anchor="start">KÚPEĽŇA 1.05 · D9</text><text x="95.6" y="441.9" font-size="2.7" class="bold" text-anchor="start">PRACOVŇA 1.04 · D8</text><text x="12" y="382.9" font-size="2.5" class="" text-anchor="start">CHODBA</text><line x1="153.6" y1="358" x2="165.6" y2="358" class="extension" /><line x1="153.6" y1="387.9" x2="165.6" y2="387.9" class="extension" /><line x1="163.6" y1="358" x2="163.6" y2="387.9" class="dim" /><line x1="162.6" y1="359" x2="164.6" y2="357" class="dim" /><line x1="162.6" y1="388.9" x2="164.6" y2="386.9" class="dim" /><g transform="translate(161.9 372.95) rotate(-90)"><text x="0" y="0" font-size="2.6" class="dim halo" text-anchor="middle">149,5</text></g><line x1="153.6" y1="387.9" x2="165.6" y2="387.9" class="extension" /><line x1="153.6" y1="425.4" x2="165.6" y2="425.4" class="extension" /><line x1="163.6" y1="387.9" x2="163.6" y2="425.4" class="dim" /><line x1="162.6" y1="388.9" x2="164.6" y2="386.9" class="dim" /><line x1="162.6" y1="426.4" x2="164.6" y2="424.4" class="dim" /><g transform="translate(161.9 406.65) rotate(-90)"><text x="0" y="0" font-size="2.6" class="dim halo" text-anchor="middle">187,5</text></g><line x1="153.6" y1="425.4" x2="165.6" y2="425.4" class="extension" /><line x1="153.6" y1="433.9" x2="165.6" y2="433.9" class="extension" /><line x1="163.6" y1="425.4" x2="163.6" y2="433.9" class="dim" /><line x1="162.6" y1="426.4" x2="164.6" y2="424.4" class="dim" /><line x1="162.6" y1="434.9" x2="164.6" y2="432.9" class="dim" /><g transform="translate(161.9 429.65) rotate(-90)"><text x="0" y="0" font-size="2.6" class="dim halo" text-anchor="middle">42,5</text></g><line x1="73.6" y1="422.9" x2="73.6" y2="414.9" class="extension" /><line x1="74.6" y1="422.9" x2="74.6" y2="414.9" class="extension" /><line x1="73.6" y1="412.9" x2="74.6" y2="412.9" class="dim" /><line x1="72.6" y1="413.9" x2="74.6" y2="411.9" class="dim" /><line x1="73.6" y1="413.9" x2="75.6" y2="411.9" class="dim" /><text x="74.1" y="411.29999999999995" font-size="2.6" class="dim halo" text-anchor="middle">J1 · 5</text><line x1="85.4" y1="425.4" x2="102.4" y2="425.4" class="extension" /><line x1="85.4" y1="426.4" x2="102.4" y2="426.4" class="extension" /><line x1="100.4" y1="425.4" x2="100.4" y2="426.4" class="dim" /><line x1="99.4" y1="426.4" x2="101.4" y2="424.4" class="dim" /><line x1="99.4" y1="427.4" x2="101.4" y2="425.4" class="dim" /><g transform="translate(98.7 425.9) rotate(-90)"><text x="0" y="0" font-size="2.6" class="dim halo" text-anchor="middle">J2 · 5</text></g><text x="75.6" y="429.9" font-size="2.5" class="halo" text-anchor="start">37,5 + 5</text><rect x="205" y="346" width="620" height="10" class="thin" fill="#efefef"/><text x="207" y="352" font-size="2.7" class="bold" text-anchor="start">Spoj / súradnice [mm]</text><text x="436.4" y="352" font-size="2.7" class="bold" text-anchor="start">Predpis existujúceho detailu</text><rect x="205" y="356" width="620" height="13" class="rule" fill="white"/><text x="207" y="360.5" font-size="2.6" class="" text-anchor="start">J1 · X 22 783–22 788 / Y 6 364,5–6 377</text><text x="436.4" y="360.5" font-size="2.6" class="" text-anchor="start">Čelo jedinej dosky: 5 mm, Trenn-Fix + Uniflott podľa princípu W623-B2.</text><rect x="205" y="369" width="620" height="13" class="rule" fill="white"/><text x="207" y="373.5" font-size="2.6" class="" text-anchor="start">J2 · X 22 783–22 842 / Y 6 359,5–6 364,5</text><text x="436.4" y="373.5" font-size="2.6" class="" text-anchor="start">5 mm mäkké oddelenie pri líci vonkajšej dosky. Pružný akustický tmel na vhodnej podkladovej vrstve; bez sadry alebo malty.</text><line x1="205" y1="346" x2="205" y2="382" class="rule" /><line x1="434.4" y1="346" x2="434.4" y2="382" class="rule" /><line x1="825" y1="346" x2="825" y2="382" class="rule" /><text x="205" y="399" font-size="2.7" class="" text-anchor="start">Súradnice predstavujú návrhovú rezervu v nominálnom pôdoryse; realizačná škára sa meria od hotového kontaktného povrchu. Veľký pôdorys a 3D zachovávajú obálku konštrukcie. Ich plná výplň v mierke domu nepredpisuje zaliatie škár J1/J2. Záväzný princíp ich vyhotovenia je v tomto zväčšenom detaile.</text><text x="205" y="429" font-size="2.7" class="bold" text-anchor="start">Obvodový UD, podtesnenie a mechanické kotvy nie sú v tejto schéme určené. R07: dopracovať kotvy, závesy, stabilitu muriva, spoje pri podlahe a strope a hydroizoláciu sprchy. J2 je projektový detail, nie skúšaný katalógový spoj.</text><text x="12" y="492" font-size="2.7" class="" text-anchor="start">KONTROLA TLAČE 100 % · 100 mm = 20 mm na papieri</text><line x1="12" y1="498" x2="32" y2="498" class="heavy" /><line x1="12" y1="495" x2="12" y2="501" class="thin" /><line x1="32" y1="495" x2="32" y2="501" class="thin" /><text x="39" y="499" font-size="2.7" class="" text-anchor="start">1 : 5 · vypnúť „prispôsobiť strane“</text><line x1="12" y1="513" x2="829" y2="513" class="heavy" /><text x="12" y="523" font-size="6" class="bold" text-anchor="start">NOVOSTAVBA RD BŘEZÍ U MIKULOVA</text><text x="12" y="531" font-size="3.6" class="bold" text-anchor="start">PARCELA 6012/26 · HLAVNÝ NÁVRH C / B / B</text><text x="12" y="541" font-size="5" class="bold" text-anchor="start">Akustické steny H200 / SM30</text><text x="12" y="550" font-size="2.6" class="" text-anchor="start">R0 = 184,200 m · M0 = PODLAHA MODELU · ΔFFL = M0 − R0 ZATIAĽ NEURČENÉ</text><text x="12" y="559" font-size="2.8" class="" text-anchor="start">Vrstvy z lib/acoustic-walls.ts. J1/J2 z lib/h200-junction.json. Detail vrstiev 1:5; realizačné kotvenie a nosné napojenia vyžadujú nový návrh.</text><line x1="500" y1="513" x2="500" y2="581" class="thin" /><text x="509" y="522" font-size="2.5" class="muted" text-anchor="start">STAV</text><text x="509" y="530" font-size="4.8" class="bold" text-anchor="start">NEVYDANÉ NA REALIZÁCIU</text><text x="509" y="538" font-size="2.8" class="" text-anchor="start">Chýbajúci návrh sa nesmie nahradiť mierkou výkresu.</text><text x="509" y="549" font-size="2.8" class="" text-anchor="start">VYPRACOVAL: digitálne dvojča · bez autorizačnej pečiatky</text><text x="509" y="557" font-size="2.8" class="" text-anchor="start">DÁTUM 2026-09-16   FORMÁT A1 841 × 594 mm   MIERKA 1 : 5</text><text x="509" y="565" font-size="2.4" class="" text-anchor="start">ZDROJ 4676f56cd888 · úplné odtlačky v model-snapshot.json</text><text x="829" y="578" font-size="6" class="bold" text-anchor="end">D1.1.DT-01</text></svg>